<?xml version="1.0" standalone="no"?>
<!DOCTYPE svg PUBLIC "-//W3C//DTD SVG 20010904//EN"
 "http://www.w3.org/TR/2001/REC-SVG-20010904/DTD/svg10.dtd">
<svg version="1.0" xmlns="http://www.w3.org/2000/svg"
 width="740.000000pt" height="740.000000pt" viewBox="0 0 740.000000 740.000000"
 preserveAspectRatio="xMidYMid meet">
<metadata>
Created by potrace 1.11, written by Peter Selinger 2001-2013
</metadata>
<g transform="translate(0.000000,740.000000) scale(0.100000,-0.100000)"
fill="#000000" stroke="none">
<path d="M1010 5590 l0 -1240 1280 0 1280 0 0 1240 0 1240 -1280 0 -1280 0 0
-1240z"/>
<path d="M3820 5590 l0 -1240 1280 0 1280 0 0 1240 0 1240 -1280 0 -1280 0 0
-1240z"/>
<path d="M1010 2850 l0 -1240 1280 0 1280 0 0 1240 0 1240 -1280 0 -1280 0 0
-1240z"/>
<path d="M3820 2850 l0 -1240 1280 0 1280 0 0 1240 0 1240 -1280 0 -1280 0 0
-1240z"/>
</g>
</svg>
